<svg id="Ebene_1" data-name="Ebene 1" xmlns="http://www.w3.org/2000/svg" viewBox="0 0 1683.78 2381.1"><defs><style>.cls-1{fill:none;stroke:#1d1d1b;stroke-miterlimit:10;}</style></defs><path class="cls-1" d="M1906.61,2381.1c4-34.5-38.83-367.37-86-403.15-5.71-4.32-3.64-14-7.61-20-3.85-5.78-9.63-10-15.31-14a1981.36,1981.36,0,0,0-335.74-191.07c-11.26-5-22.86-10.15-31.52-18.93-4.58-4.65-8.17-10.17-12.39-15.15-21.45-25.32-56-33.94-87-45.83-59-22.64-114.82-62.88-165.46-100.71,12.78-31.51,26.34-62.8,43.16-92.35,32.77-57.59,77.91-108.6,101.27-170.61,28.31-75.15,18.86-158.46,7.21-237.92a72.54,72.54,0,0,0,34.75-46c3.44-14.5,2.29-29.64,1.11-44.49-3.37-42.68-6.75-85.42-13.6-127.68-2.21-13.66-4.79-27.33-4.93-41.17-.13-11.89,1.54-23.72,1.94-35.61,1-29.92-6-59.48-13.66-88.44q9,16.81,18,33.61a184.67,184.67,0,0,0-16.23-65.31c-2.47.52.56,4.75,2.59,3.25s1.59-4.63.85-7a118.08,118.08,0,0,0-32.54-51.72,72.84,72.84,0,0,1,23.36,16.42A260,260,0,0,0,1238.51,527c-5.08-3.54-10.73-7.53-11.87-13.61-.63-3.3.22-6.83-.88-10-1.63-4.7-6.83-7-9.92-10.94s-1.49-12,3.36-10.85A625.1,625.1,0,0,0,1070,391.43c-25.81-11-57.24-11.33-84.91-16,3.37.85,4.6-5.18,1.72-7.12s-6.73-.85-10,.26a453.36,453.36,0,0,1-125.25,23.21c-24.93,1-50.45.12-74.15,7.9-19,6.24-39.11,18-57.6,10.37q.94,6,1.9,11.93c-1.3-3.55-7.2-2.23-8.82,1.19s-.73,7.42-.87,11.2c-.5,13.65-15.11,23.3-28.77,23.41s-26.32-6.62-38.3-13.18l23.35,19a52.33,52.33,0,0,0-46.8,16.94l12.44,1.69c-23,3.44-40.66,21.5-56.18,38.8q-39.33,43.83-76.07,89.88c-5.24,6.56-10.54,13.35-13.07,21.36-2,6.19-2.15,12.78-2.29,19.27a1745.28,1745.28,0,0,0,9.83,226.06c2.79,25.62,17.88,67.47,5.68,91.11-7.38,14.3-18,24.9-23.45,40.76-5.33,15.58-7.85,32.1-8.59,48.52-2.05,45.44,8.55,91.2,29.35,131.59,16.42,31.9,48.76,90.78,92.8,76.53,3.63,85.11-5.73,165.75-27.42,250.79-10.28,4.18-16.29-14.49-27.31-15.85-3.07-.38-6.11.7-9,1.82-51.46,19.92-94.53,56.22-140.25,87.13-87.08,58.89-388.52,244.86-479.5,297.53-92.22,53.39-94.43,224.92-99.4,234-4.47,8.16,14.55,75.48,13.65,84.75-6.82,69.71-30.46,82-30.74,152,0,8.45.79,18.44,8,22.82"/></svg>