<svg id="Ebene_1" data-name="Ebene 1" xmlns="http://www.w3.org/2000/svg" viewBox="0 0 1683.78 2381.1"><defs><style>.cls-1{fill:none;stroke:#1d1d1b;stroke-miterlimit:10;}</style></defs><path class="cls-1" d="M-137.23,2381.1c-4-34.91,46-345.41,56.11-379.06,2.08-6.94,3.68-14.2,7.69-20.23,3.9-5.86,9.75-10.08,15.5-14.14A2006,2006,0,0,1,281.84,1774.3c11.39-5.08,23.14-10.26,31.9-19.15,4.63-4.71,8.27-10.29,12.53-15.33,21.71-25.63,56.71-34.35,88.06-46.38,59.73-22.91,116.2-63.64,167.45-101.92-12.93-31.89-26.65-63.55-43.67-93.46-33.17-58.28-78.85-109.91-102.49-172.66-28.65-76.06-19.09-160.36-7.3-240.78a73.39,73.39,0,0,1-35.16-46.5c-3.49-14.67-2.32-30-1.13-45,3.41-43.2,6.83-86.45,13.76-129.22,2.24-13.82,4.85-27.66,5-41.66.12-12-1.57-24-2-36-1-30.29,6.11-60.21,13.83-89.51l-18.25,34a186.84,186.84,0,0,1,16.42-66.09c2.5.52-.56,4.8-2.63,3.28s-1.6-4.68-.85-7.13a119.44,119.44,0,0,1,32.93-52.34A73.74,73.74,0,0,0,426.62,625,263.06,263.06,0,0,1,508,533.63c5.14-3.57,10.85-7.62,12-13.77.63-3.34-.22-6.91.89-10.12,1.64-4.76,6.91-7.13,10-11.07s1.5-12.1-3.4-11a632.52,632.52,0,0,1,151-91.22c26.12-11.14,57.92-11.47,85.92-16.18-3.4.85-4.65-5.25-1.73-7.21s6.81-.86,10.14.26a458.81,458.81,0,0,0,126.75,23.49c25.23,1.06,51.06.12,75,8,19.24,6.32,39.57,18.24,58.28,10.5L1031,427.39c1.32-3.59,7.28-2.25,8.92,1.2s.74,7.52.88,11.34c.51,13.82,15.3,23.58,29.12,23.69s26.63-6.7,38.76-13.33l-23.63,19.22a53,53,0,0,1,47.37,17.13l-12.59,1.72c23.26,3.48,41.14,21.75,56.85,39.26q39.79,44.36,77,91c5.31,6.64,10.67,13.52,13.23,21.62,2,6.27,2.18,12.94,2.32,19.5a1765.6,1765.6,0,0,1-10,228.77c-2.82,25.93-18.1,68.28-5.75,92.21,7.47,14.47,18.23,25.2,23.73,41.25,5.4,15.77,7.94,32.49,8.69,49.1,2.08,46-8.65,92.3-29.69,133.17-16.62,32.28-49.35,91.88-93.92,77.45-3.63,85.11,6.7,171.26,27.74,253.8,10.41,4.23,16.49-14.66,27.65-16,3.1-.38,6.18.71,9.1,1.84,52.08,20.16,95.66,56.9,141.93,88.18,88.13,59.59,237.94,100.4,325.34,161.06,8.6,6,17.35,12.43,22.38,21.61,4.52,8.26,5.59,17.92,6.5,27.29,6.91,70.55,194.1,509.8,218.89,576.21"/></svg>