<svg id="Ebene_1" data-name="Ebene 1" xmlns="http://www.w3.org/2000/svg" viewBox="0 0 1683.78 2381.1"><defs><style>.cls-1{fill:none;stroke:#3b280b;stroke-miterlimit:10;}</style></defs><path class="cls-1" d="M-344.82,2404.18s46.38-136.43,107.86-291.75c58.21-147.06,171.13-250.22,204.05-259.75S125,1805.86,206.2,1792c9-1.54,18.23-3.15,26.1-7.78,9.08-5.35,16-14.51,26-17.65,7.05-2.21,14.76-1.12,21.92-3,17.47-4.47,27.06-24.62,44.2-30.22,11.56-3.78,24.82-.26,35.89-5.29,12.5-5.67,19.42-21,32.78-24.15,21.42-5,40.2,25,61.25,18.53,5.36-1.63,9.71-5.46,14-9a208.58,208.58,0,0,1,51.13-31c4.83-2,10-4.08,13.18-8.22,2.83-3.64,3.72-8.38,4.53-12.92,12.32-69,28-137.08,40.36-206.07-13.27-14.43-32.25-21.84-49.73-30.72s-35.17-21-41.34-39.66c-2.11-6.35-2.73-13.08-3.33-19.75L475.62,1281c-3.51-38.85-6.94-77.72-11.82-116.43-3.49-27.63-7.18-55.47-12.88-82.74-5.15-24.61-5.12-49.93-5.18-75.21,0-14.21.27-28.65,4.44-42.23,3.53-11.51,9.71-22,14.47-33,22.42-52.17,11.6-111.88,16.45-168.45C482.71,744.2,487,724,501.42,712c4-3.31,8.74-6,11.44-10.41,1.82-3,2.53-6.52,3.21-10,3.87-19.64,6.42-36.46,16.7-53.71a527.92,527.92,0,0,1,32.38-47.78c23.34-30.94,49.36-59.74,75.6-88.22q45.18-49.07,91.31-97.25c8.11-8.47,16.36-17,26.34-23.18,10.93-6.74,23.46-10.33,35.82-13.84C834.1,356.3,874.5,344.88,916,343.84c73.3-1.84,143.13,28.7,209.47,59.92,83.93,39.5,169.29,82.94,229.41,153.58s95,179.74,52.8,262.36c.51,8.59-.68,17.18-2,25.69a732.47,732.47,0,0,1-15.88,75c27.28,22.28,27.89,64.34,22.69,99.17a364.32,364.32,0,0,1-28.77,97.15c-10.4,22.8-24.36,44.7-42.89,61.76a109.65,109.65,0,0,1-30.6,20.42c-9.48,4.08-21.88,2.93-30.52,7.28-9.76,4.91-17.52,22.87-23,31.94-7.43,12.31-14.21,25-20.41,38a588.44,588.44,0,0,0-31,80.95c-18.76,61.16-30.87,124.13-40.88,187.25-10.16,64.1-17,129-15.89,194a707.52,707.52,0,0,0,7.49,92.85l5.64,1.34c24.91-7.15,54,5.44,65.86,28.49,1.77,3.45,3.27,7.2,6.2,9.74s6.92,3.55,10.62,4.84c19.42,6.81,33.62,23.94,52.51,32.09,4.3,1.86,8.87,3.27,12.62,6.06,4.69,3.49,7.63,8.78,11.24,13.39,14.74,18.77,39.68,25.3,61.44,35.11,29.65,13.37,55.29,34.3,84.3,49,21.29,10.81,44.21,18.18,65.2,29.55,27.79,15.06,51.4,36.69,77.78,54.08,39.11,25.77,132.68,41.89,208.54,141.62S1869.6,2404,1869.6,2404"/></svg>