<svg id="Ebene_1" data-name="Ebene 1" xmlns="http://www.w3.org/2000/svg" viewBox="0 0 1683.78 2381.1"><defs><style>.cls-1{fill:none;stroke:#1d1d1b;stroke-miterlimit:10;}</style></defs><path class="cls-1" d="M2061.58,2410.93c7.59-1.91,11.27-10.65,12-18.45s-.34-16,2.69-23.21c2.06-4.9,6-10.1,3.76-14.94a38.88,38.88,0,0,0-2.82-4.11c-1.5-2.37-2-5.23-2.4-8-8.62-56-13.8-114.09-40.38-164.1-7.11-13.38-15.68-26-21.84-39.83s-5.41-28.7-8.81-43.46c-18.39-80.07-80.34-148.71-158.12-175.17-23.38-8-48.05-12.37-70.4-22.88-21.41-10.07-40-25.43-61.33-35.66-25.33-12.16-53.62-16.66-79.83-26.79-28.45-11-53.9-28.37-80.85-42.65-94.08-49.86-203.15-60.6-306.15-87.54-7.39-1.93-14.92-4-21.15-8.44-7.3-5.19-12.12-13.07-17.17-20.47-18.68-27.33-43.68-49.33-71.9-66.63-10.24-77.76-3.3-158.32,12.22-234.93,5-24.74,8.2-61.82,22-83.3,5.53-8.62,11.45-8.11,20.88-8.72,13-.85,24.74-3.48,36.59-9.19,21.31-10.25,39-27.31,52.41-46.58,18.47-26.54,29.7-57.32,40.58-87.77,2.7-7.54,5.41-15.19,6.12-23.16,1-11.2-2-22.33-4.94-33.18-2.89-10.58-5.85-21.34-11.75-30.58-15.93-25-52.14-34-76.16-16.63-3.52-13.32,5.43-26.63,15.11-36.44s21.12-19.25,24.53-32.6c4.3-16.88-3.85-39.46,10.6-49.18l10.16,4.9,20.28-37.18a40.6,40.6,0,0,1-21.23-15.34c-1.78-7.46,10.72-7,18.08-9.12,8.43-2.43,12.07-12.5,12.25-21.26s-1.76-17.79.83-26.16c1.12-3.59,3.07-7.21,2.31-10.89-1.23-6-8.52-8.3-12.28-13.1-3.13-4-3.58-9.4-3.9-14.46l-3.09-48.37c-.58-9.17-1.82-19.58-9.26-25-8.47-6.13-24.11-5.63-25.06-16-.45-5,3.42-9.19,6.42-13.22a47.17,47.17,0,0,0,9-32.73c-.72-6.81-4-14.47-10.73-15.89,7.85-2,3.57-15.36-4.34-17.17s-16,2.18-24.09,2.13-17.19-8.86-12.21-15.27a40.35,40.35,0,0,1-23.42-6.81,94.67,94.67,0,0,0,3.13-38.31c-.81-6.56-9.1-14.33-12-8.41-10.52-3.94-9.76-18.69-9-29.9s-5.9-26.63-16.53-23c-5,1.71-7.55,7.07-10.95,11.12s-10.22,6.78-13.57,2.7c1.19-7.76.21-18.62-7.58-19.53-4.91-.58-8.85,3.63-13,6.28s-11.51,2.47-12.17-2.42c.93-7.85-5.15-15.87-13-17.12,7.43-2.85,5.14-14.48-.65-19.95s-14-9.3-16.36-16.92c-1.08-3.53-.67-7.38-1.68-10.94-2.08-7.36-10.88-12-18.13-9.58s-11.48,11.44-8.71,18.56c-14.9,2.47-33.24,3.61-41.9-8.75-2.64-3.77-4-8.42-7.17-11.74s-9.51-4.41-11.92-.5c2.6-7-8.91-10.77-15.56-7.47s-13,9.6-20.23,7.82a17.61,17.61,0,0,0,.87-14l-13.06-1.19c5.28-11.44-2.8-25.46-14-31.16s-24.47-5.31-37.06-4.78l-13.45.56c-5,.21-10.16.41-15-1a23.79,23.79,0,0,1-16.16-16.85c-14.59-2.54-32.46-3.87-41.29,8-5.28-8.13-17.86-8.36-26-3.07s-12.87,14.34-17.26,23L746.6,356.18a55.32,55.32,0,0,0-9.3,25.62c-11.13-1.76-18.37,13.83-29.63,14.3-4.54.19-8.73-2.17-12.82-4.14a86.5,86.5,0,0,0-61.22-5c-4.07,1.19-11.39,4.37-11.61,8.61,3,5-.85,11.52-5.68,14.79s-10.78,5-14.87,9.12c-6.52,6.62-5.69,18.93,1.65,24.63-8.66.18-3.22,18.69-11.63,20.78a7.93,7.93,0,0,1-4.89-.7c-5.78-2.45-9.94-7.53-14.93-11.33s-12.14-6.29-17.4-2.88c.84-5.17-7.1-8.05-11.2-4.79s-4.65,9.29-3.93,14.47,2.36,10.42,1.37,15.56c-.76,3.92-3,7.41-3.94,11.28-2.38,9.67,5,20.57,14.86,22C545.07,526.32,513,524.75,509,543.32c-.73,3.36-1.18,7.95-4.58,8.43-5.29.74-4.61-8.9-9-11.93-4.72-3.25-10,3.24-12.11,8.58l-8.45-1.8c1.56,12.73-11.43,22.1-16.45,33.9-5.61,13.21-.78,28.2,1.39,42.39a111,111,0,0,1-.08,34.08c-.66,4.15-1.7,8.54-4.74,11.43s-8.72,3.35-11.08-.13c-9.28,7.59-11.27,20.75-12.6,32.67l-.9,8.08a22.47,22.47,0,0,0,0,7c.6,2.94,2.35,5.5,4,8A290.91,290.91,0,0,1,457.69,766c5,11.17,8.65,26.12-.56,34.2-1.51,1.32-3.38,2.5-3.91,4.42-.43,1.57.15,3.22.73,4.74l15.33,40.23a61.48,61.48,0,0,0,4.28,9.59c2.41,4.12,5.74,7.63,8.34,11.63,10.51,16.19,7.69,37.3,4.47,56.34-4.79,28.42-20.29,53.51-22,82.28-9.52-14.5-31.95-15.24-46.49-5.78s-22.77,25.93-29.21,42c-5.85,14.64-10.85,30.15-9.58,45.85.75,9.37,3.7,18.39,6.7,27.29q19,56.39,41.57,111.5c2.28,5.56,6.45,12.21,12.35,11,1.7-.34,3.25-1.33,5-1.43,3.39-.18,5.85,3,8.33,5.29,8,7.4,21.88,7,29.42-.83,2.24,26.88,3,55.56,15,79.71a107.26,107.26,0,0,0,15.29,22.84c4.16,90.89-1,178.36-8.57,269a298.05,298.05,0,0,0-98,113.26l-309.8,115c-148.75,55.23-305.13,115.86-403.74,240.17-13.43,16.93-25.67,35-34.26,54.81-7.64,17.63-12.28,36.39-16.46,55.14-16.05,71.91-24.91,143-28.42,216.54"/></svg>