<svg id="Ebene_1" data-name="Ebene 1" xmlns="http://www.w3.org/2000/svg" viewBox="0 0 1683.78 2381.1"><defs><style>.cls-1{fill:none;stroke:#1d1d1b;stroke-miterlimit:10;}</style></defs><path class="cls-1" d="M1078,451.65c-10.8-5.95-22.25-11.09-34.43-13-9.43-1.47-19.39-1-28.06-5a15,15,0,0,1-7.81-10c-1.16-5,4.27-5.46,7.75-4.67,10.36,2.35,20.36,6.13,30.23,10,6.07,2.38,12.16,4.84,17.56,8.48,6.77,4.57,12.3,10.92,19.47,14.85C1081.39,453.27,1079.5,452.46,1078,451.65Zm1013.3,1971.43-110-396.95c-30.21-110-126-161-144.61-159.28-5.56-8.85-47.25-37.46-57.7-37.8-22.13-.72-116.23,11.26-136.06,1.42-11.85-5.88-62.64-22.5-73.7-29.76-23.57-15.48-95.09-1.18-121.89-9.93-21.41-7-166.79-22.18-188.2-29.16-4.44-1.45-9-3-12.63-5.91-3.38-2.75-5.76-6.6-9.23-9.24s-8.92-3.68-11.92-.51c-7.36-6.79-14.86-13.78-19.48-22.67-4.43-8.52-5.92-18.28-10-27s-12-16.86-21.62-16.35q-6-68.65-11.9-137.31c-.31-3.55-2.91-5.82.66-5.8,16.24-8.76,22.17-29.52,21.21-48s-7.12-36.28-8.19-54.71c-1.67-28.69,9-56.51,20-83.06,30.56-73.69,65.1-146,88-222.43,13.43-44.84,22.79-91,25.64-137.74,2.73-44.78-.52-89.68-3.77-134.42q-5.37-73.77-10.72-147.55c-2.43-33.32-5.14-67.72-20.67-97.29-13.83-26.36-36.68-46.63-59-66.29l-113.23-99.58c-23.61-20.76-49.43-42.52-80.72-45.52-8.74-.84-17.79-.18-26-3.17-29.31-10.61-26.91-54.32-48-77.3-13.34,13.75-35.44,14.38-53.94,9.4S858,314.71,839.19,311.06a91,91,0,0,0-61.1,9.76c-27.47,15.33-54.87,46.14-83.64,33.42-5.68-2.51-10.67-6.65-16.69-8.13-8.91-2.2-18,1.79-26.34,5.69L516.65,415.08c-5.93,2.78-12.45,6.2-14.45,12.44-1.66,5.15.29,10.67.79,16.06,2.19,23.6-22.33,39.87-43.51,50.5-56.73,28.49-115,70.19-142.86,127.24a166.2,166.2,0,0,0-13.38,36.87c-7.79,35.24-.32,71.83.16,107.91.45,32.46-4.79,64.78-4.55,97.23.72,98.44,51,188.83,99.87,274.28-16.53,54.94,4.39,113.72,33.44,163.75a155.57,155.57,0,0,1-17-100.47,2205.37,2205.37,0,0,0,81.7,225.47c12.49,29.39,25.84,58.86,45.76,83.82,25.79,32.31,61.16,55.32,95.88,77.76,7.87,45.15,8.63,93.48,13.9,139-1.37-3.46-6.78-3.37-9.34-.67s-3,6.7-3.37,10.4l-2.61,28.53c-8.48-6.48-22.79-2.3-26.44,7.73-12.82-1.89-25.62,4.12-35.77,12.18s-18.45,18.19-28.27,26.65c-30.67,26.41-72.79,34-112.72,40.67L364.13,1864c-4.93.83-10.09,1.74-14.08,4.76-4.68,3.54-6.94,9.35-10.37,14.11-7.62,10.57-20.64,15.56-33,19.71-81,27.23-171.81-3.32-291.65,82.76s-181.21,378.37-145.73,467.92"/></svg>