<svg id="Ebene_1" data-name="Ebene 1" xmlns="http://www.w3.org/2000/svg" viewBox="0 0 1683.78 2381.1"><defs><style>.cls-1{fill:none;stroke:#1d1d1b;stroke-miterlimit:10;}</style></defs><path class="cls-1" d="M1682.66,2604.78c28.85-40.87,15-97.06,25.18-146,7.11-34.21,26.1-64.74,36.57-98.07,20.15-64.13,7.64-133.44,12-200.52,4.31-65.84,24.9-133.15,6.2-196.43-13.77-46.56-49.32-86.17-94.12-104.88-20.23-8.45-42-12.78-62.23-21.22-21.74-9.07-41.22-22.66-61.13-35.25q-31.42-19.87-64.69-36.64a351.61,351.61,0,0,0-93.87-81.36c-12.76-7.58-30.68-13.77-41-3.11-13.8-12.45-31.24-23.12-44.17-36.46-36.89-38.08-78.53-76.11-105.19-122.38-26.29-45.63-40.42-98.41-39.19-151.15,13.31-4.31,26.72-3.93,40.55-1.81l3.92-4a59.22,59.22,0,0,0,13.82-2.39,156.41,156.41,0,0,0,70.71-41.58l5.64,4.83a43,43,0,0,1,29.8-11.34,195.12,195.12,0,0,0,36.58-127.72c-2.36-32.7-13-64.43-14.74-97.16-.91-17,.6-34,2.11-51q2.5-28.25,5-56.49c3-33.21-9.61-62.78-17.08-94.17s-14.55-62.7-23-93.77c-16.77-61.71-37.9-122.74-69.91-178.35-50.59-87.91-133.59-162.88-233.8-178.57-20.09-3.15-40.47-3.89-60.79-4.62l-112.08-4c-15.46-.56-32.5-.6-44.31,9.4C730.14,427,666.6,442.92,618.41,479c-12.28,9.2-21.94,22.19-34.38,30.82-10,7-21.64,11-31.77,18.34a433.43,433.43,0,0,0-73.19,66.71c-22.5,25.81-42.09,54.49-55,86.2-24.64,60.41-23.82,127.75-22.63,193q2.11,116.08,4.24,232.15c.77,42.46,1.52,85.29-6.58,127s-25.83,82.69-56.95,111.59c9.89,2.09,18.19-1.44,26.9-6.56a84.71,84.71,0,0,1-23.92,34.63,57.29,57.29,0,0,0,46.45-8.53,29.45,29.45,0,0,1-2.9,14.68l14.28-3.4c-.75,6,7.17,9.44,13.09,8.27s11.32-4.84,17.36-4.8c8.65.07,15.19,7.48,22.77,11.66s20.57,2.07,20.32-6.58c3.49,2,4.83,6.27,6.72,9.83,8.58,16.16,29.9,19.45,48.14,20.8,17.36,1.29,35.4,2.75,50.46,11.47,24,13.88,34.57,42.34,52,63.89,16.35,20.26,43,35,68.37,40.83,12,17.84,5.35,43.29-9.34,59s-35.45,24-55.49,31.75l-92.49,35.92c-82.43,32-165.31,64.18-251.82,82.52-21.79,4.62-43.92,8.4-64.62,16.61-23.56,9.35-44.53,24.16-64.71,39.49-58.37,44.35-114,96.6-142.42,164.17C5.3,1998.34-1.34,2039.4-7.85,2080c-12.07,75.31-45,358.39-57.12,433.7"/></svg>