<svg id="Ebene_1" data-name="Ebene 1" xmlns="http://www.w3.org/2000/svg" viewBox="0 0 1683.78 2381.1"><defs><style>.cls-1{fill:none;stroke:#1d1d1b;stroke-miterlimit:10;}</style></defs><path class="cls-1" d="M1909.75,2407.37a1890,1890,0,0,0-33.16-238.28c-3.46-16.9-7.19-33.94-14.59-49.52s-18.88-29.8-34.38-37.38c-3.42-1.67-7.13-3.09-9.73-5.88-2.06-2.19-3.24-5-4.42-7.8-11.42-26.68-23.58-54.31-44.58-74.34a538.25,538.25,0,0,0-71.17-57.18c-13.57-9.13-29.63-18-45.46-13.9-6,1.55-11.48,4.9-17.6,5.73-5.6.75-11.23-.66-16.75-1.9a274.54,274.54,0,0,0-107.38-2.44c-7.23,1.27-14.86,2.81-21.73.23-5.33-2-9.47-6.21-13.48-10.25a602,602,0,0,0-135.46-102.3c-20.09-11.11-41.39-21.23-64.24-23.42-34-34.43-68.66-70.34-106.48-100.53,1.66-35.18,5.26-73.31,6.92-108.5,24.32-36.67,41.08-77.74,57.68-118.5,5.88-14.43,11.76-28.88,16.68-43.67,17.1-51.35,26.37-105.19,19.26-158.84,7.78-1.2,13.19-8.19,17.36-14.87a202,202,0,0,0,30.29-98.78c.75-20.09-1.52-40.31,1-60.25,3.42-26.86,15.42-52.16,18-79.12,1-10.64-2.36-24.7-13-25.58-.44-13,10.8-23.69,12.23-36.59.74-6.68-1.23-13.33-3.18-19.76-6.42-21.19-13-41.18-19.45-62.38,34.77-6.67,71.34-14.2,97.9-37.62,25.64-22.6,38.12-57.5,39.21-91.66s-8.13-67.86-20.14-99.86c-6.18-16.48-14.11-33.82-29.42-42.49-10.22-5.78-22.34-6.85-33.67-9.94-35.48-9.67-63.78-41.69-69-78.1a12.53,12.53,0,0,0-11.88-22.06,59.89,59.89,0,0,0,15.78-48.91c.88,15.51-13.81,28.51-29.16,30.87s-30.76-3.29-44.8-9.93-27.89-14.47-43.24-16.88c-10.31-1.61-21-.71-31.08-3.34-14-3.65-25.32-13.6-37.31-21.7a159.66,159.66,0,0,0-85.7-27.15c-20.69-.4-42,3.52-59.26,15s-29.69,31.28-28.68,51.95C927.57,438.09,909.55,428,891.06,431c-27.47,4.47-41.92,34.28-51.9,60.27l-10.61,3.5c-7.54-13.52-23.8-20.32-39.27-20.54s-30.45,5.06-44.89,10.64A922.93,922.93,0,0,0,589.7,562c-27.52-51.65-94-69.09-152.45-66.14-31.73,1.6-63.94,7.88-91.18,24.24C285.67,556.37,262.71,634.81,268.5,705c-10.12,2.21-20.87,4.75-28.08,12.18s-8.51,21.5.13,27.22c7,4.62,16.28,1.78,24.11-1.19-8.09,9.55-22.69,8.58-34.94,11.11-34.05,7-53.43,52.25-35,81.76,8.68,13.94,23.13,23.15,34.08,35.39a87.87,87.87,0,0,1,19.44,36.19l31.24-19.92c3.18-2,6.6-4.12,10.36-4.06,8.9.15,12.95,11.64,11.64,20.44s-5.44,17.65-3.1,26.23c13.52-1,23.94,11.16,31.89,22.15l45.85,63.33c8.4,11.6,20.07,24.61,34.14,21.93,2.56-.49,5.3-1.48,7.65-.37s3.39,4,4.1,6.58a559.31,559.31,0,0,1,17.68,97c-1.65,4.16,5,8.35,8.06,5.06-1.68,12.24,3,24.36,7.54,35.85Q470,1219,484.77,1256.15c2.34,5.87,4.69,11.78,8.13,17.07,3.05,4.7,6.9,8.82,10.17,13.37,9.63,13.46,13.81,30.19,23.26,43.78s28.19,23.68,42.41,15.22c1.71,30.16,15.67,59.64,26.85,87.71q6.54,16.44,13.1,32.9c3.21,8.07,6.44,16.17,10.73,23.73a95.12,95.12,0,0,0,19.77,24.29c1.07,33.67,1.94,68.91,3,102.57-4.11-2.22-7.72-1.31-12.4-1.24a1104.66,1104.66,0,0,0-150.32,12.51c-5.05.77-10.18,1.6-14.73,3.92-12.08,6.17-16.73,20.64-24,32.1-5,7.88-11.57,14.63-18.08,21.32L307.41,1803.67c-22.16,22.74-44.37,45.53-63.88,70.57-11.18,14.33-25.28,33.21-22.23,51.12l-63.59,56.47c-17.15,15.24-35,30.87-56.83,37.86-29,9.27-63.9,3.1-87.23,22.62-8.42,7-14.38,16.86-23.52,23-15.12,10.09-34.95,7.73-52.95,10.32-30.75,4.41-57.66,24.27-76.65,48.86s-31,53.75-41.9,82.86c-24.26,65-40.51,130.84-44.61,200.06"/></svg>