<svg id="Ebene_1" data-name="Ebene 1" xmlns="http://www.w3.org/2000/svg" viewBox="0 0 1683.78 2381.1"><defs><style>.cls-1{fill:none;stroke:#1d1d1b;stroke-miterlimit:10;}</style></defs><path class="cls-1" d="M1882.78,2381.1s0-177-16.72-295.1c-16.9-119.39-107.7-189.8-121.5-196.21-55.55-25.76-156.32-60.58-209.38-91.15-15.71-9.06-31.91-17.85-49.61-21.8-12.56-2.8-25.51-3.07-38.31-4.37-19.91-2-41.57-4-59.37-13.11-19.44-10-41.8-13-61.44-22.55-11.58-5.63-22-13.41-33.37-19.39-33.74-17.7-73.61-18.5-110-29.7a35.3,35.3,0,0,1-8.37-3.47,39,39,0,0,1-6.75-5.9c-6.68-6.83-13.5-13.79-22-18.22s-19-6-27.54-1.7c10-72.07-28.53-151.71,3-217.3l24.69-51.44c4.39-9.16,8.79-18.31,12.73-27.67,6.25-14.86,7.46-32.23,11.33-47.88,18.68.67,38.25,1.16,55-7.15,22.69-11.26,35-35.94,44.61-59.38a780.1,780.1,0,0,0,36-111.08c5.14-21.13,2-42,1.7-63.77a82.89,82.89,0,0,0-2-17.19,3.85,3.85,0,0,0-.9-2c-.78-.72-2-.66-3-.66a16.3,16.3,0,0,1-15.66-14.45c-.24-2.9.33-5.82.1-8.72s-1.21-5.48-1.55-8.26a18.61,18.61,0,0,1,1.77-10.49c.56-1.13,1.25-2.32,1-3.56-.25-1.51-1.71-2.45-2.88-3.45a12.39,12.39,0,0,1-3.15-14l5.15-11.63,0-.09a99.93,99.93,0,0,0,16.3-48.3c22.39-8.08,39-30.16,40.62-53.91.76-11.29-1.59-22.53-3.93-33.6q-10-47.33-20-94.65c12.61,10.39,17.08,29.52,10.38,44.42,14.91-26.71-3.91-65.62-34.12-70.49,2-13.23-1.48-26.59-4.9-39.52q-17.42-65.87-34.85-131.75l8.87,12c-22.12-61.23-74.12-106-124-147.77-17.19-14.4-34.54-28.91-54.34-39.42-17.83-9.47-37.29-15.51-56.94-20.19-97.48-23.21-199.72-13.8-298.55,2.77-29.45,4.94-62.22,12.74-77.94,38.14L678,368.4c-42.36,23.05-64.88,77.32-51.29,123.6l6.54,5.89C602.67,488.06,568.8,500,543,519c-12.1,8.93-23.16,19.53-31.21,32.23-9,14.15-14,30.61-24,44.1-18.89,25.68-53,37.63-69.44,64.94l5.33,5.31q-16.9,22.26-32.56,45.43c-2.13,3.16-4.32,6.57-4.33,10.38s3.24,7.85,7,7.17c1.28-.23,2.52-1,3.81-.78,1.89.29,2.91,2.57,2.63,4.46s-1.47,3.51-2.46,5.16c-8.54,14.13-2.78,36,12,43.42,1.18,14.66-11.2,29-25.88,30.06l9.41,7.28-6.93,5.2c4.3,2.53,5.7,8.35,4.56,13.21s-4.24,9-7.27,12.95c9,10.89,18.53,23,18.69,37.14,0,3-.2,6.47,2,8.5,1,.92,2.43,1.48,2.91,2.74a4.79,4.79,0,0,1-.18,2.89,62.25,62.25,0,0,0-1.16,27.22c2.06,11.46,6,22.66-.86,32.08-8.41.07-17,.18-24.86,3.24-14.15,5.52-23,19.46-30.05,32.9-4.27,8.12-8.32,16.54-9.75,25.6-3.82,24.14,11.35,47.68,10.49,72.11-.22,6.21-1.47,12.36-1.38,18.57.12,7.71,2.3,15.21,4.47,22.6,2.67,9.08,5.38,18.27,10.34,26.32,3.48,5.65,8,10.61,11.52,16.22s6.15,12,10,17.6c4.4,6.38,10.34,11.52,16.37,16.39,23.46,19,47.58,33.31,73.23,49.15a27.5,27.5,0,0,0,5.14,20.22c2.4,3.2,5.51,5.87,7.5,9.34s2.76,7.59,3.44,11.58q3.58,21,6.12,42.17c1,8,1.8,16,3.23,23.9.68,3.72,1.48,7.42,2,11.17.65,4.58.87,9.21,1.1,13.84,4.15,84.43,6.85,167.1,11,251.53,1.92-.23-.46-3-2.39-2.83-13.36,1-26,6.2-38.35,11.37l-96.46,40.34c-5.68,2.38-11.37,4.75-17.17,6.83-5,1.79-10.08,3.36-15,5.42-10.72,4.51-20.31,11.27-30.52,16.83-47.93,26-105.71,24-158.48,37.81-18.6,4.86-36.74,11.76-55.76,14.56-17.74,2.62-35.83,1.61-53.7,3.22-33.87,3.06-77.95,8.79-168.08,79.73s-126.2,523.24-126.2,523.24"/></svg>