<svg id="Ebene_1" data-name="Ebene 1" xmlns="http://www.w3.org/2000/svg" viewBox="0 0 1683.78 2381.1"><defs><style>.cls-1{fill:none;stroke:#1d1d1b;stroke-miterlimit:10;}</style></defs><path class="cls-1" d="M2155.71,2458.77c-6.62-66-34.31-136.25-59.49-197.58l-28.14-68.55c-7-17.17-14.23-34.57-25.54-49.29-8.24-10.73-18.49-19.78-26.87-30.4-13-16.49-21.07-36.2-30.56-54.92-50.47-99.55-141.07-171.62-228.94-240.43,21.57-21.86,8-61.37-17.05-79.09s-57.08-21.32-86.5-30.11a243.25,243.25,0,0,1-83.66-44.24c-10-8.15-19.65-17.26-31.64-22s-27.36-4-35.87,5.65c-17-52.58-103.16-53.17-122.24-105-5.46-14.83-5.46-33.74-18.73-42.33-12.6-8.16-29.1-1.6-44.12-1.59-23.71,0-44.34-17.17-57.24-37.07s-20.17-42.88-31.34-63.79c-25.93-48.55-73.78-84.82-127.52-96.68-1.21-29.22-3.65-54.66-3.57-83.91,8.75,12.63,31.92,9.52,37-5,1.5-4.26,1.61-9,3.47-13.08s5.53-7.47,8.8-10.81c12.81-13.08,21.57-29.52,29.75-45.91a1135.48,1135.48,0,0,0,46-105.07c8.4-22.16,16.23-45.65,13-69.13s-21.11-46.62-44.77-47.94c-14-.78-27.75,5.9-41.59,3.92,17.09-70.74-6.55-143.56-31.55-211.9-33.37-91.19-76.79-182.86-151.9-244.4-39.36-32.25-85.94-54.84-134.2-71a511.84,511.84,0,0,0-54.91-15.19,449.32,449.32,0,0,0-192.35,1c-15.84,3.57-31.75,8-48,7.41a543.08,543.08,0,0,1-104.08,73c-7.06,3.81-14.4,7.6-19.59,13.71-7.06,8.33-10,20.66-19.63,25.71a33.16,33.16,0,0,0,10.58,13c-27,13.87-17.39,53.68-21.52,83.73-2.71,19.68-12.89,37.39-21.6,55.25-43.39,88.92-52.88,193.89-26.14,289.15,3,10.74,6.5,21.79,5,32.84s-9.92,22.08-21.07,22.43a1464.48,1464.48,0,0,0,85.52,372.65c15.48,41.55,33.46,83.36,63.87,115.62,12.05,12.79,32.13,19.08,28,36.15-7,28.89-14.42,58.73-32.59,82.26-16.64,21.56-40.73,35.79-63.54,50.66a832.82,832.82,0,0,0-140.9,115.69c-8.55,8.76-17.09,17.84-27.83,23.71-9,4.92-19.14,7.33-28.64,11.21-26.62,10.89-47,32.65-67.51,52.78-13.71,13.43-29,27-47.9,30.34-9.63,1.72-19.61.64-29.22,2.51-29.12,5.64-46,35-66.42,56.53-42.48,44.76-110.75,61.79-145,113.15-23.56,35.34-26.23,80.14-28.16,122.58l-6.12,134.79-1.55,34.08-4.76,104.91"/></svg>