<svg id="Ebene_1" data-name="Ebene 1" xmlns="http://www.w3.org/2000/svg" viewBox="0 0 1683.78 2381.1"><defs><style>.cls-1{fill:none;stroke:#27330b;stroke-miterlimit:10;}</style></defs><path class="cls-1" d="M138,3226.39c14.9-12.82,11.91-39.59,34.77-47.15,14,11.77,6.14,30.54,19.62,44.06,11.63,5.15,26.78,1.46,41.43.84q271-11.47,542-23.51l681.63-29.77,46-2c8.13-22.23,1.77-42.64,2.45-62.5.66-19,1.8-37.65,6.37-54.41,10.47-3.65,12.35,2.14,14,7,9.12,27.24,17.85,54.62,27,81.86,2.53,7.57,5.91,14.85,8.5,21.28,33.75,3.71,314.31-7.25,371.6-14.28,6-10.77-.62-20.44-4.34-29.92-18.46-47.19-36-94.59-47.21-144.18-9.41-41.81-13-83.86-6.74-126.35,1.62-11.11,2-21.1-2.52-31.89-26.41-63.14-33.44-129.87-31.51-197.26,2.67-93,8.67-185.93,12.45-278.92,3.57-87.85-.9-175.12-22.12-261-20.49-82.91-65.19-149.82-132.25-202.26-43.41-34-90.48-62.11-141.37-82.79-58.27-23.68-117.34-45.54-176.77-66.16-40.25-14-79.28-29.95-116.56-50.53-31.16-17.2-62.67-33.78-94.25-50.19-44.9-23.33-90.57-44.76-143.15-51.24-5.69-29.44-6.43-57.76,1.44-85.93a404.94,404.94,0,0,1,14.28-42.74c31.4-77.65,31.54-77.6,39.62-151.2,46.57-20.33,65.11-62,76-108.8a378.21,378.21,0,0,0,8.92-118.26c-1.52-17.94-1.29-34.81,7.11-51.93,5.79-11.8,6.67-26.18,8.81-39.55,4.24-26.37,9.34-52.39,25.24-76.87-25.81-22.28-29.63-47.09-9.74-75.43,3.84-5.48,1.88-15.37,1.67-23.2-.1-3.94-4.34-8.63-3.18-11.61,8.15-20.93.13-36.24-14.4-50.91-4.19-4.24-6.48-12.87-5.77-19,3.88-33.32-14.54-56.92-33.43-80.41-11.64-14.48-30.62-24.13-30-46.48a191,191,0,0,1-31.3-46.53c-6.74-13.8-23.54-18.47-38.49-21a543.19,543.19,0,0,0-57.06-6.51c-17.81-1.13-35.26-2.75-52.95-10.13-15.53-53.27-46.33-66.88-41.17-33-19.15-4.29-30.26-24.6-52.26-22.94l-7.79,16.29c-2.53.51-5.17,1.76-7.58,1.42-20.32-2.91-40.86-5-60.84-9.48-35.94-8.1-70.79-6.84-104.22,9.13A61.79,61.79,0,0,1,616,474.13c-20.71-5.42-40.57-1.76-60.74,3.41-28.13,7.22-54.28,18.92-79.06,33.59-10.5,6.22-21.74,13.18-28.94,22.63C423.4,565,397.52,595,381.07,631.42c-5.61,12.43-13.25,23.93-19.53,36.09-15.12,29.27-28.77,59.15-33.28,92.22-1.48,10.8-2.59,21.7-3,32.58s1.83,22.11,0,32.7-7.12,20.47-11.64,32.69c12.73,13.07,22.85,28.4,19.83,49.49-1.08,7.58.18,17.95,4.72,23.49,24.19,29.54,18.62,63.31,14.23,96.16-4.92,36.78-10.09,73.53-4.8,110.37,3.87,26.91,9.42,54,17.95,79.72,13.15,39.71,38.05,69.37,81.58,78.78,2.47.53,4.54,2.9,9.52,6.25,3.23,38.85,18.91,76.66,31,115.61,13.88,44.83,17.91,91.17,10,138.1-3.19,19-11.31,32.73-30.31,40.14-12.59,4.9-24.47,12.18-35.75,19.76q-95.42,64.18-190.35,129.06c-58.84,40.06-118.13,79.51-176.22,120.63A1040.71,1040.71,0,0,0-75.48,1985.07c-68.43,69.58-120.11,149-144.06,244.77-15.77,63.06-20.34,127.33-15,191.61,5.25,62.66,14.46,125.06,23.93,187.27,10.91,71.7,25.79,142.81,35.69,214.63,11.66,84.5,11.88,169.22-6.78,253.23-9.5,42.74-18.24,85.64-27.12,128.52-2.18,10.55-3.56,21.27-5.69,34.22,6.38,1.48,11.24,3.75,16,3.54q164.24-7,328.47-14.54C132.68,3228.2,135.31,3227.06,138,3226.39Z"/></svg>